<svg width="24" height="24" viewBox="0 0 24 24" fill="none" xmlns="http://www.w3.org/2000/svg">
<g opacity="0.64">
<path fill-rule="evenodd" clip-rule="evenodd" d="M17.8171 6.85715L15.6113 9.94438V15.0872L17.8171 12V6.85715Z" fill="#767FAD"/>
<path fill-rule="evenodd" clip-rule="evenodd" d="M15.6113 9.9444L19.3616 12.487V17.6299L15.6113 15.0873V9.9444Z" fill="#767FAD"/>
<path fill-rule="evenodd" clip-rule="evenodd" d="M19.3598 12.487L13.5926 12.2298L10.5631 15.0748L9.20455 11.8286L3.58203 11.0442V16.1871L9.20455 16.9714L10.5631 20.2176L13.5926 17.3727L19.3598 17.6299V12.487Z" fill="#767FAD"/>
<path fill-rule="evenodd" clip-rule="evenodd" d="M3.58203 11.0442L8.50956 9.29517V14.438L3.58203 16.1871V11.0442Z" fill="#767FAD"/>
<path fill-rule="evenodd" clip-rule="evenodd" d="M8.50988 9.29516L8.06445 5.96548V11.1083L8.50988 14.438V9.29516Z" fill="#767FAD"/>
<path fill-rule="evenodd" clip-rule="evenodd" d="M8.06445 5.96548L12.4684 8.13067L17.8156 6.85717V12L12.4684 13.2735L8.06445 11.1083V5.96548Z" fill="#767FAD"/>
<path d="M17.8154 6.85716L15.6096 9.9444L19.3598 12.487L13.5927 12.2298L10.5632 15.0748L9.20465 11.8286L3.5821 11.0442L8.50965 9.29516L8.06423 5.96548L12.4682 8.13067L17.8154 6.85716Z" fill="#D8DBEB"/>
</g>
</svg>
