<svg width="24" height="24" viewBox="0 0 24 24" fill="none" xmlns="http://www.w3.org/2000/svg">
<g opacity="0.64">
<g clip-path="url(#clip0_4494_2470)">
<path d="M8.63665 19.8597C9.04272 19.7033 9.24635 19.4947 9.48592 19.1329C9.86451 18.5604 10.3531 18.2694 10.7983 17.7724C11.2916 17.2211 11.7635 16.6255 12.3765 16.1988C12.8472 15.8713 13.3306 15.2735 13.8019 15.0133C14.2311 14.7761 13.9362 14.0636 13.5014 14.3037C12.9913 14.5852 12.6956 15.0415 12.2307 15.3876C11.7996 15.709 11.4103 15.9897 11.0175 16.3821C10.569 16.8307 10.2006 17.3297 9.70338 17.7201C9.26868 18.0616 8.80319 18.9703 8.33618 19.15C7.87363 19.3282 8.17349 20.038 8.63665 19.8597Z" fill="#767FAD" stroke="#767FAD" stroke-width="0.5" stroke-linejoin="round"/>
<path d="M13.3761 15.0946C13.8744 14.9962 14.0514 14.8186 14.4088 14.4575C15.0905 13.7682 15.7666 13.0808 16.4841 12.4274C17.0389 11.9227 17.5897 11.3924 18.1779 10.9268C18.6641 10.5422 19.2643 10.305 19.5864 9.76122C19.8366 9.33948 19.2275 8.8666 18.975 9.29299C18.7233 9.71772 18.0804 10.0149 17.705 10.3187C17.1806 10.7429 16.6837 11.2125 16.1831 11.6643C15.7244 12.0757 15.2742 12.4966 14.8329 12.9266C14.4313 13.3206 13.7959 14.2279 13.2752 14.3308C12.7908 14.4261 12.8884 15.1906 13.3761 15.0946Z" fill="#767FAD" stroke="#767FAD" stroke-width="0.5" stroke-linejoin="round"/>
<path d="M19.7086 8.55451C19.4574 8.03792 18.9346 8.96143 18.4269 9.01038C16.8398 9.16357 15.4035 8.70838 13.8195 8.89163C10.6508 9.2582 7.48594 9.65658 4.32434 10.0816C3.89736 10.1388 3.73758 11.4369 4.17403 11.4909C5.13951 11.6104 5.6356 11.9948 6.4467 12.5043C6.90649 12.793 7.57254 12.743 8.04321 13.0247C8.99382 13.5926 9.82047 14.3051 10.7829 14.8527C11.8818 15.4789 13.0304 15.9129 14.1042 16.6313C14.5408 16.9232 14.9927 17.2183 15.4786 17.4227C16.0821 17.6766 16.9412 17.6693 17.4389 18.1125C17.7385 18.3793 18.1623 17.9936 18.0278 17.6565C17.8229 17.1427 17.7275 17.0867 17.3926 16.6446C16.9459 16.056 16.6771 15.4519 16.3651 14.7795C15.8018 13.5642 15.2861 12.3758 14.8763 11.0993C14.4431 9.74953 13.7296 8.84318 13.101 7.61191C12.569 6.56989 12.3489 5.48809 11.5806 4.57438C11.406 4.36656 11.0195 4.3752 10.921 4.66181C10.6593 5.4239 10.7221 6.17933 10.5913 6.9654C10.4256 7.96158 9.98218 8.8895 9.76222 9.87297C9.30535 11.9161 9.18296 14.0813 8.81975 16.1509C8.66332 17.0439 8.1643 18.3469 8.27976 19.2296C8.31993 19.5374 8.35164 19.7884 8.64332 19.9673C9.32009 20.3827 9.76041 19.6569 9.66711 19.0656C9.64692 18.9368 9.56243 18.806 9.43397 18.7608C8.94481 18.5882 8.89207 18.5936 8.45384 18.8873C8.04217 19.1632 8.51595 19.7709 8.92675 19.4955C9.29104 19.2513 9.36024 17.5269 9.43586 17.096L9.73054 15.4169C9.94161 14.2139 10.1516 13.0166 10.2761 11.8008C10.4079 10.5113 10.7259 9.37812 11.0847 8.14061C11.3865 7.09905 11.2849 5.9692 11.6316 4.9596L10.9721 5.04702C11.7891 6.01892 11.9905 7.2546 12.6169 8.33074C13.2738 9.4594 13.8514 10.3978 14.2448 11.6586C14.5902 12.763 15.0594 13.7938 15.5452 14.8416C15.8012 15.3936 16.0268 15.9767 16.3188 16.5103C16.5505 16.9334 17.1961 17.6508 17.3182 17.9569L17.9074 17.5008C17.562 17.1935 17.2686 17.1214 16.8293 17.0006C15.8866 16.7414 15.2147 16.4446 14.394 15.8985C13.8875 15.5615 13.4018 15.1901 12.8653 14.8997C12.2139 14.5468 11.4901 14.3981 10.8735 13.9815C9.90797 13.3293 8.9824 12.6456 7.94769 12.1095C6.68602 11.4558 5.75574 10.9101 4.27924 10.7275L4.42558 10.8453C8.08081 10.3521 11.7413 9.89896 15.4065 9.48605C15.6791 9.4552 18.9528 9.63792 18.9468 9.62596C19.1627 10.0698 19.9261 9.0019 19.7086 8.55451Z" fill="#767FAD" stroke="#767FAD" stroke-width="0.5" stroke-linejoin="round"/>
</g>
</g>
<defs>
<clipPath id="clip0_4494_2470">
<rect width="17.1429" height="17.1429" fill="white" transform="translate(3.42773 3.42856)"/>
</clipPath>
</defs>
</svg>
